<svg width="40" height="28" viewBox="0 0 40 28" fill="none" xmlns="http://www.w3.org/2000/svg">
<path d="M39.305 11.1656L30.8994 1.07938C30.6178 0.741604 30.2655 0.469841 29.8673 0.283319C29.4691 0.096798 29.0347 7.64591e-05 28.595 0H2C0.895625 0 0 0.895625 0 2V20C0 21.1044 0.895625 22 2 22H4C4 25.3137 6.68625 28 10 28C13.3138 28 16 25.3137 16 22H24C24 25.3137 26.6863 28 30 28C33.3138 28 36 25.3137 36 22H38C39.1044 22 40 21.1044 40 20V13.0863C40 12.3844 39.7537 11.705 39.305 11.1656ZM4 10V4H10V10H4ZM10 25C8.34313 25 7 23.6569 7 22C7 20.3431 8.34313 19 10 19C11.6569 19 13 20.3431 13 22C13 23.6569 11.6569 25 10 25ZM20 10H14V4H20V10ZM30 25C28.3431 25 27 23.6569 27 22C27 20.3431 28.3431 19 30 19C31.6569 19 33 20.3431 33 22C33 23.6569 31.6569 25 30 25ZM24 10V4H28.1262L33.1263 10H24Z" fill="white"/>
</svg>
