<svg width="40" height="24" viewBox="0 0 40 24" fill="none" xmlns="http://www.w3.org/2000/svg">
<path d="M32.0318 8.00006C31.0085 7.99606 30.0299 8.18475 29.1296 8.531L24.2746 0.708937C24.14 0.492109 23.9523 0.313204 23.7293 0.189149C23.5063 0.0650943 23.2553 -8.68476e-06 23.0001 8.68973e-10H19.0001C18.4478 8.68973e-10 18.0001 0.447687 18.0001 1V2C18.0001 2.55231 18.4478 3 19.0001 3H22.1656L23.0966 4.5H16.0001V3.5C16.0001 2.94769 15.5524 2.5 15.0001 2.5H9.53395C8.69388 2.5 7.98539 3.18744 8.00045 4.02731C8.01495 4.84256 8.6802 5.5 9.50013 5.5H12.5455L10.7069 8.47C9.86738 8.16812 8.96295 8.00231 8.01995 8C3.63089 7.98937 0.0257646 11.5632 0.0001396 15.9522C-0.0257979 20.3924 3.56595 24 8.00014 24C11.7278 24 14.86 21.4504 15.7481 18H19.0001C19.2556 18 19.5069 17.9347 19.7301 17.8104C19.9533 17.6861 20.141 17.5068 20.2755 17.2896L25.6481 8.61062L26.5818 10.1148C24.9908 11.5803 23.9952 13.6824 24.0001 16.0171C24.0091 20.3192 27.6188 23.9578 31.9206 23.9996C36.3335 24.0424 39.9319 20.5119 39.9991 16.1248C40.0669 11.691 36.4662 8.01731 32.0318 8.00006ZM11.6719 12.6107C12.2798 13.2688 12.7139 14.0896 12.8995 15H10.1929L11.6719 12.6107ZM8.00014 21C5.24314 21 3.00014 18.757 3.00014 16C3.00014 13.243 5.24314 11 8.00014 11C8.36695 11 8.72426 11.0408 9.06882 11.1162L6.22476 15.7105C5.6072 16.7079 6.32582 18 7.50014 18H12.5814C11.8083 19.7641 10.0463 21 8.00014 21ZM18.1645 15H15.938C15.6905 13.0152 14.7158 11.2566 13.2891 9.99837L14.8357 7.5H22.8074L18.1645 15ZM31.7306 20.9929C29.1658 20.8576 27.1025 18.7621 27.0039 16.1957C26.9531 14.8756 27.4184 13.6633 28.2123 12.7417L30.9894 17.2159C31.2806 17.6851 31.8971 17.8294 32.3664 17.5381L33.216 17.0108C33.6852 16.7196 33.8296 16.1031 33.5382 15.6338L30.759 11.1561C31.1645 11.0523 31.5815 10.9999 32.0001 11.0001C34.7571 11.0001 37.0001 13.2431 37.0001 16.0001C37.0001 18.8463 34.6094 21.1448 31.7306 20.9929Z" fill="white"/>
</svg>
