<svg width="24" height="24" viewBox="0 0 24 24" fill="none" xmlns="http://www.w3.org/2000/svg">
<path d="M22 12C22 17.5242 17.5242 22 12 22C6.47581 22 2 17.5242 2 12C2 6.47581 6.47581 2 12 2C17.5242 2 22 6.47581 22 12ZM12.6855 16.5927L18.1492 11.129C18.5282 10.75 18.5282 10.1371 18.1492 9.7621L17.4637 9.07661C17.0847 8.69758 16.4718 8.69758 16.0968 9.07661L12 13.1734L7.90323 9.07661C7.52419 8.69758 6.91129 8.69758 6.53629 9.07661L5.85081 9.7621C5.47177 10.1411 5.47177 10.754 5.85081 11.129L11.3145 16.5927C11.6935 16.9718 12.3065 16.9718 12.6855 16.5927Z" fill="#4CC988"/>
</svg>
