<svg width="24" height="16" viewBox="0 0 24 16" fill="none" xmlns="http://www.w3.org/2000/svg">
<path d="M23.855 7.39168C21.5954 2.98292 17.1221 0 12 0C6.87791 0 2.40332 2.98501 0.144977 7.3921C0.0496614 7.58064 0 7.78896 0 8.00022C0 8.21149 0.0496614 8.4198 0.144977 8.60835C2.40457 13.0171 6.87791 16 12 16C17.1221 16 21.5967 13.015 23.855 8.60793C23.9503 8.41939 24 8.21108 24 7.99981C24 7.78854 23.9503 7.58023 23.855 7.39168ZM12 14C10.8133 14 9.65327 13.6481 8.66657 12.9888C7.67988 12.3296 6.91084 11.3925 6.45671 10.2961C6.00259 9.19976 5.88377 7.99336 6.11528 6.82947C6.34679 5.66558 6.91823 4.59648 7.75735 3.75737C8.59647 2.91825 9.66557 2.3468 10.8295 2.11529C11.9933 1.88378 13.1997 2.0026 14.2961 2.45673C15.3925 2.91085 16.3295 3.67989 16.9888 4.66659C17.6481 5.65328 18 6.81333 18 8.00002C18.0004 8.78806 17.8455 9.56845 17.5441 10.2966C17.2427 11.0247 16.8007 11.6863 16.2435 12.2435C15.6863 12.8007 15.0247 13.2427 14.2966 13.5441C13.5684 13.8455 12.788 14.0004 12 14ZM12 4.00001C11.643 4.005 11.2882 4.05812 10.9454 4.15792C11.228 4.54196 11.3636 5.01455 11.3276 5.48999C11.2917 5.96543 11.0865 6.41224 10.7494 6.74939C10.4122 7.08654 9.96541 7.2917 9.48997 7.32766C9.01453 7.36363 8.54194 7.22802 8.15791 6.94543C7.93923 7.75109 7.9787 8.60505 8.27078 9.3871C8.56285 10.1692 9.09282 10.8399 9.78608 11.305C10.4793 11.7701 11.301 12.006 12.1354 11.9797C12.9698 11.9533 13.7749 11.666 14.4375 11.1581C15.1 10.6502 15.5866 9.94728 15.8287 9.14835C16.0708 8.34942 16.0563 7.49467 15.7872 6.70442C15.5181 5.91417 15.008 5.22819 14.3286 4.74306C13.6492 4.25792 12.8348 3.99804 12 4.00001Z" fill="#1AB5F8"/>
</svg>
