<svg width="20" height="20" viewBox="0 0 20 20" fill="none" xmlns="http://www.w3.org/2000/svg">
<path fill-rule="evenodd" clip-rule="evenodd" d="M10.7266 0.200633C10.9627 0.373192 11.1 0.633724 11.1 0.909098V1.81819H19C19.5523 1.81819 20 2.2252 20 2.72728V17.2727C20 17.7748 19.5523 18.1818 19 18.1818H11.1V19.0909C11.1 19.3663 10.9627 19.6268 10.7266 19.7994C10.4906 19.9719 10.1812 20.0379 9.88534 19.9788L0.785343 18.1606C0.326718 18.069 0 17.6996 0 17.2727V2.72728C0 2.3004 0.326718 1.93101 0.785343 1.83938L9.88534 0.0211995C10.1812 -0.0379115 10.4906 0.0280736 10.7266 0.200633ZM11.1 16.3636H18V3.63637H11.1V16.3636ZM9.1 17.9603L2 16.5417V3.45827L9.1 2.03969V17.9603ZM7 8.18182C7.55228 8.18182 8 8.58883 8 9.09091V10.9091C8 11.4112 7.55228 11.8182 7 11.8182C6.44772 11.8182 6 11.4112 6 10.9091V9.09091C6 8.58883 6.44772 8.18182 7 8.18182Z" fill="#81919A"/>
</svg>
