<svg width="40" height="24" viewBox="0 0 40 24" fill="none" xmlns="http://www.w3.org/2000/svg">
<path d="M32.0514 7.99829C31.1204 7.99204 30.2331 8.14201 29.402 8.42945L27.3462 4.99893H32.4951C33.3261 4.99893 33.9948 4.33032 33.9948 3.49925V1.49968C33.9948 0.668607 33.3261 0 32.4951 0H29.6644C29.2395 0 28.8334 0.181211 28.5522 0.493644L26.2089 3.09934L24.7842 0.724845C24.5093 0.274941 24.0219 0 23.497 0H18.4981C17.9482 0 17.4983 0.449904 17.4983 0.999786V1.99957C17.4983 2.54945 17.9482 2.99936 18.4981 2.99936H22.6472L23.8469 4.99893H14.2427C13.1367 3.55549 11.4371 2.49947 8.00031 2.49947H4.5323C3.68873 2.49947 2.98264 3.18682 3.00138 4.03039C3.01388 4.84271 3.68249 5.49882 4.50106 5.49882H8.00031C9.53123 5.49882 10.4185 6.17993 10.9872 7.04849L10.2811 8.32947C9.46875 8.08577 8.60018 7.97329 7.70038 8.00454C3.49503 8.15451 0.102002 11.5975 0.00202337 15.8091C-0.0979552 20.3144 3.52002 23.9949 8.00031 23.9949C11.7245 23.9949 14.8551 21.4454 15.7487 17.9961H21.01C21.8661 17.9961 22.5472 17.2838 22.5097 16.4277C22.3785 13.4846 23.6032 10.5727 26.0215 8.61691L26.8025 9.91663C25.0779 11.3976 23.9844 13.5971 24.0031 16.0528C24.0344 20.4019 27.5774 23.9574 31.9264 23.9949C36.4005 24.0386 40.0372 20.4019 39.9997 15.9278C39.956 11.5788 36.4005 8.02953 32.0514 7.99829ZM8.00031 20.9955C5.24465 20.9955 3.00138 18.7522 3.00138 15.9966C3.00138 13.2409 5.24465 10.9976 8.00031 10.9976C8.26276 10.9976 8.5252 11.0164 8.78139 11.0601L6.1882 15.7716C5.63832 16.7714 6.36316 17.9961 7.50042 17.9961H12.5806C11.8057 19.7583 10.0436 20.9955 8.00031 20.9955ZM36.9879 16.2715C36.8504 18.8085 34.8008 20.858 32.2701 20.9893C29.3895 21.1455 26.9962 18.846 26.9962 15.9966C26.9962 14.6594 27.5211 13.4471 28.3772 12.5536L31.464 17.7025C31.7452 18.1774 32.3638 18.3273 32.8387 18.0461L33.6948 17.5337C34.1697 17.2526 34.3197 16.6339 34.0385 16.159L31.0016 11.1039C31.3266 11.0351 31.6577 11.0039 31.9952 11.0039C34.8446 10.9976 37.1378 13.3909 36.9879 16.2715Z" fill="white"/>
</svg>
