<svg width="40" height="30" viewBox="0 0 40 30" fill="none" xmlns="http://www.w3.org/2000/svg">
<path d="M39.0615 8.75001H34.3841L33.0841 5.50001C31.7482 2.1586 28.5599 0 24.9607 0H15.0388C11.4404 0 8.25129 2.1586 6.91457 5.50001L5.61457 8.75001H0.937998C0.327841 8.75001 -0.119816 9.32345 0.0286222 9.91486L0.497373 11.7899C0.601279 12.207 0.97628 12.5 1.40675 12.5H2.97472C1.9255 13.4164 1.24972 14.7485 1.24972 16.25V20C1.24972 21.2594 1.73097 22.3961 2.49972 23.2758V27.5C2.49972 28.8805 3.61925 30 4.99972 30H7.49973C8.8802 30 9.99973 28.8805 9.99973 27.5V25H29.9998V27.5C29.9998 28.8805 31.1193 30 32.4998 30H34.9998C36.3802 30 37.4998 28.8805 37.4998 27.5V23.2758C38.2685 22.3969 38.7498 21.2602 38.7498 20V16.25C38.7498 14.7485 38.074 13.4164 37.0255 12.5H38.5935C39.024 12.5 39.399 12.207 39.5029 11.7899L39.9716 9.91486C40.1193 9.32345 39.6716 8.75001 39.0615 8.75001ZM11.5568 7.35704C12.1263 5.9336 13.5052 5.00001 15.0388 5.00001H24.9607C26.4943 5.00001 27.8732 5.9336 28.4427 7.35704L29.9998 11.25H9.99973L11.5568 7.35704ZM7.49973 19.9844C5.99972 19.9844 4.99972 18.9875 4.99972 17.4922C4.99972 15.9969 5.99972 15 7.49973 15C8.99973 15 11.2497 17.243 11.2497 18.7383C11.2497 20.2336 8.99973 19.9844 7.49973 19.9844ZM32.4998 19.9844C30.9998 19.9844 28.7498 20.2336 28.7498 18.7383C28.7498 17.243 30.9998 15 32.4998 15C33.9998 15 34.9998 15.9969 34.9998 17.4922C34.9998 18.9875 33.9998 19.9844 32.4998 19.9844Z" fill="white"/>
</svg>
